# xmcd CD Database Entry
#
# Track frame offsets:
# 150
# 26229
# 44079
# 69255
# 92319
# 113823
# 143152
# 171007
# 191669
# 217056
# 241143
# 257230
# 282154
#
# Disc length: 4168 seconds
#
# Revision: 1
# Processed by: cddbd v1.4b41PL1 Copyright (c) Steve Scherf et al.
# Submitted via: tcd 2.0b
#
DISCID=bd10460d
DTITLE=Egoexpress - Bieker
DYEAR=1900
DGENRE=
TTITLE0=HERE COMES THE NIGHT
TTITLE1=START/STOP
TTITLE2=WELCOME THE HUMANS
TTITLE3=WEITER
TTITLE4=SOMETHING TO HIDE
TTITLE5=TARGET
TTITLE6=MUSIC NO MUSIC MUSIC
TTITLE7=SMILY BLU
TTITLE8=A SHAKIN'S GOIN' ON
TTITLE9=WE ARE HERE
TTITLE10=ROCK
TTITLE11=MIPM
TTITLE12=ALLES MUSS RAUS
EXTD=
EXTT0=
EXTT1=
EXTT2=
EXTT3=
EXTT4=
EXTT5=
EXTT6=
EXTT7=
EXTT8=
EXTT9=
EXTT10=
EXTT11=
EXTT12=
PLAYORDER=
